<?xml version="1.0" encoding="UTF-8"?>
<svg width="512pt" height="512pt" version="1.1" viewBox="0 0 512 512" xmlns="http://www.w3.org/2000/svg">
 <style>
  .figure {
   stroke: #dedede;
   fill: #efefef;
  }
 </style>
 <g>
  <path class="figure" d="m209.29 46.664c0-25.77 20.895-46.664 46.664-46.664 25.773 0 46.664 20.895 46.664 46.664 0 25.773-20.895 46.664-46.664 46.664s-46.664-20.891-46.664-46.664z"/>
  <path class="figure" d="m312.46 247.2v0.4375 0.21875 4.1523 0.4375c0 0.14453 0.070313 0.29297 0.21875 0.4375l62.949 219.23c4.832 16.539-4.7617 33.859-21.418 38.688-16.539 4.707-33.762-4.8828-38.469-21.422l-47.652-165.45c-1.5547-5.3047-6.457-8.9609-12.02-8.9609-5.5664 0-10.469 3.6562-12.023 8.9609l-47.648 165.46c-4.8281 16.539-22.148 26.129-38.688 21.422-16.539-4.8281-26.129-22.148-21.418-38.688l63.387-219.66v-88.957c0-1.1875-0.77734-2.3125-1.9688-2.8398-1.1914-0.39844-2.5703-0.14062-3.4961 0.65625l-72.129 72.348c-9.1758 9.0547-24.051 9.0547-33.223 0-9.0547-9.1758-9.0547-24.047 0-33.223l88.742-88.52c2.5977-2.5977 5.6406-4.6758 8.9609-6.1211 3.4648-1.4453 7.1016-2.1836 10.711-2.1836l116.94-0.21875c3.6055-0.14453 7.25 0.52344 10.711 1.9688 3.4609 1.4414 6.5859 3.5234 9.1797 6.1211l88.957 88.957c9.1758 9.1758 9.1758 24.047 0 33.223-9.1758 9.0547-23.949 9.0547-33.004 0l-72.348-72.348c-0.79688-0.79688-2.0859-1.0547-3.2773-0.65625-1.1875 0.52734-1.9688 1.6523-1.9688 2.8398v88.957z"/>
 </g>
</svg>
